<?xml version="1.0" standalone="no"?>
<!DOCTYPE svg PUBLIC "-//W3C//DTD SVG 20010904//EN"
 "http://www.w3.org/TR/2001/REC-SVG-20010904/DTD/svg10.dtd">
<svg version="1.0" xmlns="http://www.w3.org/2000/svg"
 width="260.000000pt" height="260.000000pt" viewBox="0 0 260.000000 260.000000"
 preserveAspectRatio="xMidYMid meet">
<metadata>
Created by potrace 1.11, written by Peter Selinger 2001-2013
</metadata>
<g transform="translate(0.000000,260.000000) scale(0.100000,-0.100000)"
fill="#000000" stroke="none">
<path d="M2384 1966 c-51 -22 -74 -61 -74 -123 0 -49 4 -59 33 -88 62 -62 158
-55 205 15 20 29 23 44 20 87 -5 59 -25 88 -75 109 -40 17 -69 17 -109 0z"/>
<path d="M1748 1670 c-122 -21 -226 -102 -281 -218 -30 -63 -32 -74 -32 -182
0 -108 2 -119 32 -182 55 -117 149 -187 280 -209 65 -10 151 -3 201 17 l34 14
-19 -32 c-30 -51 -74 -71 -170 -76 l-83 -5 0 -99 0 -100 98 4 c68 3 114 12
154 27 80 31 159 106 200 189 l33 67 3 382 3 383 -25 0 c-17 0 -36 -14 -62
-44 l-37 -45 -36 29 c-82 66 -196 97 -293 80z m142 -220 c72 -37 121 -134 106
-212 -8 -45 -56 -112 -99 -139 -47 -30 -142 -23 -189 13 -110 84 -98 275 20
338 48 25 113 25 162 0z"/>
<path d="M70 1270 l0 -380 105 0 105 0 0 228 c0 207 2 230 20 259 31 51 71 66
188 71 l102 4 0 99 0 99 -88 0 c-118 0 -196 -15 -259 -51 -29 -16 -54 -29 -57
-29 -2 0 -15 18 -30 40 -21 32 -32 40 -56 40 l-30 0 0 -380z"/>
<path d="M650 1417 c0 -260 9 -317 61 -399 58 -90 155 -140 274 -141 75 -1
139 21 201 68 l32 24 27 -39 c21 -31 34 -40 56 -40 l29 0 0 380 0 380 -99 0
-100 0 -3 -239 -3 -239 -31 -39 c-37 -46 -89 -66 -135 -53 -44 13 -87 56 -99
99 -5 20 -10 134 -10 254 l0 217 -100 0 -100 0 0 -233z"/>
<path d="M2340 1270 l0 -380 100 0 100 0 0 380 0 380 -100 0 -100 0 0 -380z"/>
</g>
</svg>
